<svg width="90" height="81" fill="none" xmlns="http://www.w3.org/2000/svg"><rect x="2.113" y="1.936" width="85.367" height="60.28" rx="3.5" stroke="#05C2DF"/><path stroke="#05C2DF" d="M1.613 52.163H87.98"/><path stroke="#05C2DF" stroke-linecap="round" d="M40.553 57.429h7.953"/><path stroke="#05C2DF" d="M27.387 62.738h34.284v5.224H27.387zM16.855 74.228h55.349v5.224H16.855zM18.184 73.707l8.84-5.224h35.011l8.84 5.224h-52.69Z"/><path d="m25.113 13.796 8 22.363h.09l8-22.363h.773l-8.318 23.272h-1L24.34 13.796h.773Zm21.536 23.272V13.796h6.819c1.303 0 2.454.276 3.454.83a5.997 5.997 0 0 1 2.364 2.317c.575.993.863 2.155.863 3.489 0 1.318-.288 2.473-.863 3.466a6.02 6.02 0 0 1-2.364 2.307c-1 .545-2.151.818-3.454.818h-6.455v-.727h6.455c1.166 0 2.197-.243 3.09-.728a5.3 5.3 0 0 0 2.103-2.045c.507-.879.761-1.91.761-3.091 0-1.19-.254-2.227-.761-3.114a5.28 5.28 0 0 0-2.102-2.057c-.894-.492-1.925-.738-3.091-.738h-6.091v22.545h-.728Zm8.864-10.59 5.727 10.59h-.818l-5.727-10.59h.818Z" fill="#05C2DF"/></svg>