<svg width="81" height="80" fill="none" xmlns="http://www.w3.org/2000/svg"><path d="M36.046 27.079v-7.01m16.632 14.295h8.11m-37.8 10.447h4.398M44.98 59.519v-7.01" stroke="#05C2DF"/><rect x="27.748" y="27.442" width="24.567" height="24.567" rx="3.5" stroke="#05C2DF"/><rect x="32.422" y="32.115" width="15.495" height="15.495" rx="3.5" stroke="#05C2DF"/><rect x="61.013" y=".5" width="18.519" height="18.519" rx="3.5" stroke="#05C2DF"/><rect x="65.412" y="4.899" width="9.997" height="9.997" rx="2.5" stroke="#05C2DF"/><rect x=".532" y=".5" width="18.519" height="18.519" rx="3.5" stroke="#05C2DF"/><rect x="4.931" y="4.899" width="9.997" height="9.997" rx="2.5" stroke="#05C2DF"/><rect x="1.357" y="60.431" width="18.519" height="18.519" rx="3.5" stroke="#05C2DF"/><rect x="5.755" y="64.83" width="9.997" height="9.997" rx="2.5" stroke="#05C2DF"/><rect x="61.013" y="60.431" width="18.519" height="18.519" rx="3.5" stroke="#05C2DF"/><rect x="65.412" y="64.83" width="9.997" height="9.997" rx="2.5" stroke="#05C2DF"/><path d="M45.255 27.079V9.897h15.12M27.386 37.113H9.929V19.52M52.815 40.962h17.183v18.97M36.596 52.508v17.183H20.238" stroke="#05C2DF"/><circle cx="36.046" cy="17.595" r="1.974" stroke="#05C2DF"/><circle cx="63.262" cy="34.364" r="1.974" stroke="#05C2DF"/><circle cx="20.651" cy="44.811" r="1.974" stroke="#05C2DF"/><circle cx="44.843" cy="61.856" r="1.974" stroke="#05C2DF"/></svg>