<svg width="70" height="82" fill="none" xmlns="http://www.w3.org/2000/svg"><path d="M68.848 7.079v73.59H16.994v-1.86a1.916 1.916 0 1 0-3.832 0v1.86H.95V27.842c0-.506.41-.916.916-.916h12.297V14.629c0-.506.41-.916.916-.916h4.747V7.08c0-.506.41-.916.916-.916h6.635V1.416a.916.916 0 1 1 1.831 0v4.747h6.635c.506 0 .916.41.916.916v6.634h3.831V7.08c0-.506.41-.916.916-.916h26.427c.506 0 .916.41.916.916ZM35.623 77.5V51.073M41.623 77.427V51M47.623 77.427V51" stroke="#05C2DF" stroke-linecap="round"/><path d="M49.946 16.517a1.166 1.166 0 1 1-2.332 0v-1.888a1.166 1.166 0 1 1 2.332 0v1.888ZM55.609 16.517a1.166 1.166 0 1 1-2.331 0v-1.888a1.166 1.166 0 1 1 2.331 0v1.888ZM61.272 16.517a1.166 1.166 0 1 1-2.331 0v-1.888a1.166 1.166 0 1 1 2.331 0v1.888ZM49.946 25.955a1.166 1.166 0 1 1-2.332 0v-1.888a1.166 1.166 0 1 1 2.332 0v1.888ZM55.609 25.955a1.166 1.166 0 1 1-2.331 0v-1.888a1.166 1.166 0 1 1 2.331 0v1.888ZM61.272 25.955a1.166 1.166 0 1 1-2.331 0v-1.888a1.166 1.166 0 1 1 2.331 0v1.888ZM49.946 35.393a1.166 1.166 0 1 1-2.332 0v-1.887a1.166 1.166 0 1 1 2.332 0v1.887ZM55.609 35.393a1.166 1.166 0 1 1-2.331 0v-1.887a1.166 1.166 0 1 1 2.331 0v1.887ZM61.272 35.393a1.166 1.166 0 1 1-2.331 0v-1.887a1.166 1.166 0 1 1 2.331 0v1.887ZM10.305 39.169a1.166 1.166 0 1 1-2.331 0V37.28a1.166 1.166 0 1 1 2.331 0v1.888ZM15.969 39.169a1.166 1.166 0 1 1-2.332 0V37.28a1.166 1.166 0 1 1 2.332 0v1.888ZM21.631 39.169a1.166 1.166 0 1 1-2.331 0V37.28a1.166 1.166 0 1 1 2.331 0v1.888ZM10.305 48.607a1.166 1.166 0 1 1-2.331 0v-1.888a1.166 1.166 0 1 1 2.331 0v1.888ZM15.969 48.607a1.166 1.166 0 1 1-2.332 0v-1.888a1.166 1.166 0 1 1 2.332 0v1.888ZM21.631 48.607a1.166 1.166 0 1 1-2.331 0v-1.888a1.166 1.166 0 1 1 2.331 0v1.888ZM10.305 58.045a1.166 1.166 0 1 1-2.331 0v-1.888a1.166 1.166 0 1 1 2.331 0v1.888ZM15.969 58.045a1.166 1.166 0 1 1-2.332 0v-1.888a1.166 1.166 0 1 1 2.332 0v1.888ZM21.631 58.045a1.166 1.166 0 1 1-2.331 0v-1.888a1.166 1.166 0 1 1 2.331 0v1.888ZM10.305 67.483a1.166 1.166 0 1 1-2.331 0v-1.888a1.166 1.166 0 1 1 2.331 0v1.888ZM15.969 67.483a1.166 1.166 0 1 1-2.332 0v-1.888a1.166 1.166 0 1 1 2.332 0v1.888ZM21.631 67.483a1.166 1.166 0 1 1-2.331 0v-1.888a1.166 1.166 0 1 1 2.331 0v1.888ZM61.272 44.831a1.166 1.166 0 1 1-2.331 0v-1.887a1.166 1.166 0 1 1 2.331 0v1.887ZM61.272 54.27a1.166 1.166 0 1 1-2.331 0v-1.888a1.166 1.166 0 1 1 2.331 0v1.888ZM61.272 63.708a1.166 1.166 0 1 1-2.331 0V61.82a1.166 1.166 0 1 1 2.331 0v1.888ZM61.272 73.146a1.166 1.166 0 1 1-2.331 0v-1.888a1.166 1.166 0 1 1 2.331 0v1.888Z" fill="#05C2DF" stroke="#05040B" stroke-width=".5" stroke-linecap="round"/><path d="M33.949 20H22.623" stroke="#05C2DF" stroke-linecap="round"/></svg>