<svg width="84" height="83" fill="none" xmlns="http://www.w3.org/2000/svg"><g clip-path="url('#clip0_3495_5007')" stroke="#05C2DF"><path d="M72.883 22.133a5.039 5.039 0 0 1 5.033-5.033 5.039 5.039 0 0 1 5.033 5.033 5.039 5.039 0 0 1-5.033 5.034 5.039 5.039 0 0 1-5.033-5.034ZM.949 67.783a5.039 5.039 0 0 1 5.033-5.033 5.039 5.039 0 0 1 5.033 5.033 5.039 5.039 0 0 1-5.033 5.034A5.039 5.039 0 0 1 .95 67.783ZM74.427 18.044 63.601 12.63M57.666 77.467a5.039 5.039 0 0 1 5.033-5.034 5.04 5.04 0 0 1 5.033 5.034A5.039 5.039 0 0 1 62.7 82.5a5.039 5.039 0 0 1-5.033-5.033ZM58.935 73.605l-10.13-5.4M36.916 42.883a5.039 5.039 0 0 1 5.033-5.033 5.039 5.039 0 0 1 5.033 5.033 5.039 5.039 0 0 1-5.033 5.033 5.039 5.039 0 0 1-5.033-5.033ZM38.702 38.613l-7.94-6.135M52.132 51.183c0-8.113 6.603-14.716 14.717-14.716s14.716 6.603 14.716 14.716c0 8.114-6.602 14.717-14.716 14.717-8.114 0-14.717-6.603-14.717-14.717Z"/><path d="M61.816 47.033A5.039 5.039 0 0 1 66.849 42a5.039 5.039 0 0 1 5.033 5.033 5.039 5.039 0 0 1-5.033 5.034 5.039 5.039 0 0 1-5.033-5.034ZM74.208 63.916h.001a.882.882 0 0 0 .44-.764v-3.647c0-2.011-1.686-3.672-3.787-3.672h-8.026c-2.101 0-3.787 1.66-3.787 3.671v3.647c0 .315.168.606.44.765h14.72Zm0 0a14.715 14.715 0 0 1-7.36 1.984c-2.57 0-5.115-.686-7.358-1.984h14.718ZM18.933 67.783c0-8.114 6.602-14.716 14.716-14.716 8.114 0 14.717 6.602 14.717 14.716 0 8.114-6.603 14.717-14.717 14.717s-14.716-6.603-14.716-14.717Z"/><path d="M28.616 63.633a5.039 5.039 0 0 1 5.033-5.033 5.039 5.039 0 0 1 5.033 5.033 5.039 5.039 0 0 1-5.033 5.033 5.039 5.039 0 0 1-5.033-5.033ZM41.01 80.515h-.002A14.715 14.715 0 0 1 33.65 82.5c-2.571 0-5.116-.686-7.359-1.984a.884.884 0 0 1-.44-.765v-3.647c0-2.01 1.685-3.67 3.786-3.67h8.026c2.101 0 3.787 1.66 3.787 3.672v3.646a.882.882 0 0 1-.44.763ZM.949 33.2c0-8.114 6.603-14.717 14.717-14.717 8.113 0 14.716 6.603 14.716 14.717S23.78 47.917 15.666 47.917C7.552 47.917.949 41.314.949 33.2Z"/><path d="M10.633 29.05a5.039 5.039 0 0 1 5.033-5.033 5.039 5.039 0 0 1 5.033 5.033 5.039 5.039 0 0 1-5.033 5.033 5.039 5.039 0 0 1-5.033-5.033ZM23.026 45.932h-.001a14.716 14.716 0 0 1-7.36 1.985c-2.57 0-5.115-.686-7.358-1.984a.884.884 0 0 1-.441-.766v-3.646c0-2.01 1.686-3.671 3.787-3.671h8.026c2.1 0 3.787 1.66 3.787 3.672v3.647a.882.882 0 0 1-.44.763ZM34.15 15.217C34.15 7.103 40.751.5 48.865.5c8.114 0 14.716 6.603 14.717 14.717 0 8.114-6.603 14.716-14.717 14.716s-14.717-6.602-14.717-14.716Z"/><path d="M43.832 11.067a5.039 5.039 0 0 1 5.033-5.034 5.04 5.04 0 0 1 5.034 5.034 5.039 5.039 0 0 1-5.034 5.033 5.039 5.039 0 0 1-5.033-5.033ZM56.226 27.949h-.001a14.715 14.715 0 0 1-7.36 1.984c-2.57 0-5.115-.686-7.358-1.984a.884.884 0 0 1-.441-.765v-3.647c0-2.01 1.686-3.67 3.787-3.67h8.026c2.1 0 3.787 1.66 3.787 3.672v3.646a.882.882 0 0 1-.44.764ZM33.853 14.435l-8.865 7.217M66.127 36.087l-7.217-9.744M52.563 56.296l-5.562 4.33M18.793 67.483h-7.518M20.699 5.533a5.039 5.039 0 0 1-5.034 5.034 5.039 5.039 0 0 1-5.033-5.034A5.039 5.039 0 0 1 15.666.5a5.039 5.039 0 0 1 5.033 5.033ZM14.523 10.826v7.217"/></g><defs><clipPath id="clip0_3495_5007"><path fill="#fff" transform="translate(.449)" d="M0 0h83v83H0z"/></clipPath></defs></svg>