<svg width="20" height="15" fill="none" xmlns="http://www.w3.org/2000/svg"><path d="M7.354 14.67c-.819 0-1.661-.06-2.509-.178-1.493-.21-3.004-.91-3.432-1.12l-1.122-.55 1.215-.357c1.327-.391 2.135-.634 3.134-1.014-1-.434-1.772-1.215-2.143-2.225l-.283-.769.232.032c-.22-.199-.393-.4-.528-.583-.478-.651-.731-1.446-.677-2.128l.053-.67.448.155a3.508 3.508 0 0 1-.406-1.02c-.196-.873-.032-1.8.461-2.612l.39-.642.523.562C4.36 3.328 6.453 4.382 8.935 4.69a3.017 3.017 0 0 1 .226-1.772c.293-.631.814-1.166 1.506-1.547a4.942 4.942 0 0 1 2.625-.578c.98.054 1.87.383 2.577.953.346-.08.6-.167.944-.283.206-.07.441-.149.735-.24l1.081-.333-.705 1.805c.046-.004.094-.007.144-.009l1.155-.046-.682.835c-.04.048-.05.062-.063.08-.055.075-.124.167-1.06 1.288-.235.281-.352.647-.33 1.03.082 1.457-.117 2.775-.594 3.917a6.949 6.949 0 0 1-2.077 2.757c-1.147.925-2.61 1.56-4.347 1.883a14.88 14.88 0 0 1-2.716.239Z" fill="#fff"/></svg>